<svg xmlns="http://www.w3.org/2000/svg" viewBox="0 0 500 500" width="100%" height="100%">
  <defs>
    <linearGradient id="fadeGradient" x1="0" y1="0" x2="0" y2="1">
      <stop offset="0%" stop-color="#040613" />
      <stop offset="25%" stop-color="#3b6b85" />
      <stop offset="60%" stop-color="#e2e6e5" />
      <stop offset="100%" stop-color="#e2e6e5" />
    </linearGradient>
  </defs>

  <rect width="100%" height="100%" fill="#040613" />

  <g fill="none" stroke="url(#fadeGradient)" stroke-width="5" stroke-linecap="butt">
    <path d="M 220 180 L 220 280 A 30 30 0 0 0 280 280 L 280 180" />
    <path d="M 210 180 L 210 280 A 40 40 0 0 0 290 280 L 290 180" />
    <path d="M 200 180 L 200 280 A 50 50 0 0 0 300 280 L 300 180" />
    <path d="M 190 180 L 190 280 A 60 60 0 0 0 310 280 L 310 180" />
    <path d="M 180 180 L 180 280 A 70 70 0 0 0 320 280 L 320 180" />
    <path d="M 170 180 L 170 280 A 80 80 0 0 0 330 280 L 330 180" />
    <path d="M 160 180 L 160 280 A 90 90 0 0 0 340 280 L 340 180" />
    <path d="M 150 180 L 150 280 A 100 100 0 0 0 350 280 L 350 180" />
    <path d="M 140 180 L 140 280 A 110 110 0 0 0 360 280 L 360 180" />
  </g>
</svg>
